<svg data-v-0dd9719b="" version="1.0" xmlns="http://www.w3.org/2000/svg" xmlns:xlink="http://www.w3.org/1999/xlink" width="100%" height="100%" viewBox="0 0 340.000000 250.000000" preserveAspectRatio="xMidYMid meet" color-interpolation-filters="sRGB" style="margin: auto;"> <rect data-v-0dd9719b="" x="0" y="0" width="100%" height="100%" fill="#fff" fill-opacity="1" class="background"></rect> <rect data-v-0dd9719b="" x="0" y="0" width="100%" height="100%" fill="url(#watermark)" fill-opacity="1" class="watermarklayer"></rect> <g data-v-0dd9719b="" fill="#333" class="icon-text-wrapper icon-svg-group iconsvg" transform="translate(48.02033996582031,94.97748374938965)"><g class="iconsvg-imagesvg" transform="translate(0,0)"><g><rect fill="#333" fill-opacity="0" stroke-width="2" x="0" y="0" width="60" height="60.0450337753315" class="image-rect"></rect> <svg x="0" y="0" width="60" height="60.0450337753315" filtersec="colorsb2480745450" class="image-svg-svg primary" style="overflow: visible;"><svg xmlns="http://www.w3.org/2000/svg" viewBox="-0.00005833804243593477 -0.003611281979829073 107.92018127441406 108.00090789794922"><title>资源 22</title><path d="M33.28 91.66c-9.86 0-16.24-5.64-17-12.6-1-9.63 6-15.21 12.12-16.56 17.11-3.76 28.26-14.18 33.4-31 .49-1.62.76-3.3 1.26-4.91A14.54 14.54 0 0 1 77 16.11a14.84 14.84 0 0 1 14.14 10.12c2.86 8.29-2.71 17.25-11.47 19.15C62 49.2 50.81 60 45.9 77.36a34.57 34.57 0 0 1-1.9 6.13c-2.65 5.35-7.09 8.1-10.72 8.17z" fill="#5bebaf"></path><path d="M31 15.82a68 68 0 0 0 8.33-.07c3.42-.42 5.61-2.95 6.16-6.38.15-.9.19-1.82.35-2.71A7.75 7.75 0 0 1 53.36 0a8 8 0 0 1 3.72 15.2 6.71 6.71 0 0 1-2.62.66c-7.78.11-9.79 6.41-8.85 12a14.69 14.69 0 0 1-5.56 14.73 14.94 14.94 0 0 1-16.69 1.21A15.1 15.1 0 0 1 16 29.14c.87-6.44 5-11.29 11-12.78 1.31-.33 2.66-.52 4-.78z" fill="#40d7ff"></path><path d="M77.17 62.2A14.88 14.88 0 1 1 75 91.8a18.29 18.29 0 0 0-6.56.18c-4.24 1-6.07 3.39-6.37 7.76-.26 3.74-1.84 6.53-5.46 7.78a7.29 7.29 0 0 1-8.07-2 7.28 7.28 0 0 1-1.77-8.25c1.16-2.94 3.26-4.88 6.4-4.94 6.38-.1 9.83-4.11 9.44-10.33-.1-1.69-.22-3.39-.21-5.08A14.63 14.63 0 0 1 77.17 62.2z" fill="#6691ff"></path><path d="M107.92 54.18a7.93 7.93 0 1 1-15.86.08 7.93 7.93 0 1 1 15.86-.08z" fill="#40d7ff"></path><path d="M15.64 53.81A7.74 7.74 0 0 1 8 61.72a8 8 0 0 1-8-7.92 7.83 7.83 0 0 1 7.77-7.86 7.67 7.67 0 0 1 7.87 7.87z" fill="#5479dc"></path></svg></svg> <!----></g></g> <g transform="translate(67,1.0162639617919922)"><g data-gra="path-name" fill-rule="" class="tp-name iconsvg-namesvg" transform="translate(0,0)"><g transform="scale(1)"><g><path d="M41.09-34.38L41.09-34.38Q42.75-31.99 40.32-30.15L40.32-30.15Q37.93-28.35 36.36-30.82L36.36-30.82Q36.36-31.27 34.56-32.8L34.56-32.8Q32.4-34.74 34.65-36.41 36.9-38.07 39.2-36.23L39.2-36.23Q41.13-34.74 41.09-34.38ZM5.49-36.81L22.54-36.81 22.54-33.98Q22.54-31.05 19.62-31.05L19.62-31.05 8.41-31.05Q5.49-31.05 5.49-33.98L5.49-33.98 5.49-36.81ZM19.17-11.16L19.17-5.49Q21.46-5.89 25.92-6.71L25.92-6.71 26.19-3.55Q26.41-0.63 23.58-0.09L23.58-0.09Q16.96 1.26 5.58 3.28L5.58 3.28Q2.7 3.78 1.89 0.58L1.89 0.58Q1.13-2.61 4.05-2.97L4.05-2.97 4.63-3.1 4.63-18.63 10.62-18.63 10.62-4.05 12.91-4.41 12.91-21.24 19.17-21.24 19.17-16.88 24.97-16.88 24.97-14.08Q24.97-11.16 22.05-11.16L22.05-11.16 19.17-11.16ZM42.84-28.3L42.84-25.24Q42.84-22.32 39.91-22.32L39.91-22.32 32.22-22.32Q32.85-13.68 34.2-7.92 35.55-2.16 37.13-2.16L37.13-2.16Q38.2-2.16 38.48-10.13L38.48-10.13 41.4-8.1Q43.83-6.48 43.47-3.6L43.47-3.6Q43.06 1.67 40.23 3.46L40.23 3.46Q38.84 4.32 36.49 4.32L36.49 4.32Q27.58 4.32 25.7-22.32L25.7-22.32 5.04-22.32Q2.11-22.32 2.11-25.24L2.11-25.24 2.11-28.3 25.38-28.3Q25.2-32.67 25.2-38.25L25.2-38.25 31.86-38.25Q31.72-32.89 31.9-28.3L31.9-28.3 42.84-28.3ZM56.74-35.32L58.09-34.52Q60.52-32.89 58.68-30.24L58.68-30.24Q56.88-27.58 54.54-29.38L54.54-29.38 53.28-30.24Q50.89-31.72 51.21-31.45L51.21-31.45Q48.65-32.8 50.35-35.19L50.35-35.19Q52.06-37.62 54.72-36.36L54.72-36.36Q54.31-36.67 56.74-35.32L56.74-35.32ZM56.16-22.86L56.16-22.86Q58.55-21.15 56.84-18.36L56.84-18.36Q55.13-15.62 52.88-17.55L52.88-17.55Q52.42-17.91 49.01-19.39L49.01-19.39Q46.4-20.65 47.97-23.13L47.97-23.13Q49.59-25.65 52.29-24.57L52.29-24.57Q55.3-23.49 56.16-22.86ZM55.84-14.67L55.84-14.67 58.32-12.29Q60.39-10.26 59.09-7.65L59.09-7.65Q56.61-2.61 54.23 1.3L54.23 1.3Q52.74 3.82 50.09 1.57L50.09 1.57Q47.48-0.63 49.09-3.06L49.09-3.06Q51.8-6.79 55.84-14.67ZM80.55-29.74L80.55-29.74 68.49-29.74Q70.56-20.43 74.7-13.81L74.7-13.81Q78.8-20.29 80.55-29.74ZM64.26-35.91L83.3-36.18 84.64-35.73Q87.44-34.83 87.03-31.95L87.03-31.95Q85.59-17.95 78.84-8.46L78.84-8.46Q83.25-3.78 86.49-2.56L86.49-2.56Q89.14-1.35 86.98 1.35 84.82 4.05 82.22 2.7L82.22 2.7Q78.75 1.17 74.43-3.42L74.43-3.42Q69.39 1.26 64.89 2.97L64.89 2.97Q62.23 4.14 60.39 1.4 58.55-1.35 61.29-2.38L61.29-2.38Q65.56-3.69 70.38-8.5L70.38-8.5Q65.3-16.2 63-26.14L63-26.14Q62.28-28.98 65.16-29.56L65.16-29.56 66.02-29.74 64.26-29.74Q61.34-29.74 61.34-32.67L61.34-32.67 61.34-32.98Q61.34-35.91 64.26-35.91L64.26-35.91ZM96.66-14.22L96.66-14.22 99.5-12.46Q101.97-10.98 101.2-8.19L101.2-8.19Q99.67-2.7 98.19 1.03L98.19 1.03Q97.25 3.78 94.28 2.21 91.31 0.63 92.39-2.07L92.39-2.07Q94.36-6.48 96.66-14.22ZM97.29-24.75L99.18-23.71Q101.75-22.36 99.81-19.71L99.81-19.71Q97.88-17.1 95.4-18.63L95.4-18.63 93.47-19.84Q90.99-21.38 92.83-23.71L92.83-23.71Q94.72-26.1 97.29-24.75L97.29-24.75ZM111.78-16.2L111.78-16.2 109.84-16.2Q108.99-7.47 106.92-2.7L106.92-2.7Q106.65-1.93 107.5-1.89L107.5-1.89 108.72-1.8Q109.84-1.8 110.34-2.52L110.34-2.52Q111.28-3.92 111.78-16.2ZM116.14-26.23L110.38-26.23 110.25-22.09 117.86-22.09Q117.31-0.99 115.42 1.53L115.42 1.53Q114.21 3.24 112.63 3.55L112.63 3.55 110.97 3.78Q108.05 3.92 107.55 0.99L107.55 0.99Q107.78 0.54 106.56-1.75L106.56-1.75Q105.08 1.71 104.89 1.93L104.89 1.93Q103 4.18 100.84 2.02 98.69-0.14 100.35-2.52L100.35-2.52Q102.42-4.72 103.45-11.97L103.45-11.97Q104-15.84 104.13-18.68L104.13-18.68 104.4-26.23Q101.66-26.23 101.66-28.98L101.66-28.98 101.66-32.4 107.59-32.4Q106.61-34.56 106.69-34.2L106.69-34.2Q105.3-36.81 108.31-37.93 111.33-39.06 112.77-36.54L112.77-36.54 112.91-36.31Q114.39-33.8 111.69-32.67L111.69-32.67 111.11-32.4 117.67-32.4 117.67-29.61Q119.07-33.39 119.75-38.38L119.75-38.38 123.07-37.8Q125.95-37.35 125.46-34.47L125.46-34.47 125.23-33.52 133.83-33.52 133.83-30.29Q133.83-27.36 130.91-27.36L130.91-27.36 123.48-27.36 122.44-24.84 130.5-25.15 131.94-24.12Q134.32-22.41 132.7-20.02L132.7-20.02Q131.94-18.95 129.28-16.29L129.28-16.29 129.28-14.04 133.97-14.04 133.97-11.16Q133.97-8.23 131.04-8.23L131.04-8.23 129.28-8.23 129.28-2.16Q129.28 0.09 128.79 1.3L128.79 1.3Q128.34 2.52 127.03 3.19L127.03 3.19Q125.06 4.23 122.85 4.23L122.85 4.23Q119.92 4.23 119.16 1.44L119.16 1.44 118.26-1.71Q119.88-1.62 122.49-1.62L122.49-1.62Q123.25-1.62 123.25-2.25L123.25-2.25 123.25-8.23 121.05-8.23Q118.13-8.23 118.13-11.16L118.13-11.16 118.13-14.04 123.25-14.04 123.25-17.73Q124.02-18.4 124.74-19.21L124.74-19.21 122.67-19.21Q119.83-19.21 119.83-22.05L119.83-22.05Q117.54-23.54 116.73-23.85L116.73-23.85Q115.11-24.66 116.14-26.23L116.14-26.23ZM98.73-36.63L100.75-35.5Q103.32-34.11 101.34-31.5L101.34-31.5Q99.41-28.89 97.16-30.82L97.16-30.82Q97.52-30.46 94.91-31.81L94.91-31.81Q92.43-33.34 94.28-35.68L94.28-35.68Q96.17-38.02 98.73-36.63L98.73-36.63ZM166.32-1.71L166.32-1.71 171.09-1.71Q172.13-1.71 172.49-2.25L172.49-2.25 173.07-4.77 172.49-4.23Q170.28-2.29 167.67-5.13 165.06-7.96 167.31-9.81L167.31-9.81 167.81-10.26 164.16-10.26 164.16-3.46Q164.16-2.29 164.52-1.98L164.52-1.98Q164.93-1.71 166.32-1.71ZM147.15-21.38L147.15-16.79Q147.15-15.93 148-15.93L148-15.93 153.54-15.93 154.22-21.38 147.15-21.38ZM155.66-27.04L158-30.33 150.48-30.33 147.82-27.04 155.66-27.04ZM160.38-15.93L168.39-15.93 168.39-21.38 161.1-21.38 160.38-15.93ZM173.84-7.25L173.84-7.25Q174.78-6.25 173.75-5.35L173.75-5.35 173.79-5.4Q176.13-4.18 178.11-2.43L178.11-2.43Q178.97-3.42 178.56-0.49L178.56-0.49Q178.43 0.99 176.89 2.52L176.89 2.52Q175.37 4.09 171.72 4.09L171.72 4.09 165.47 4.09Q160.78 4.09 159.21 2.52 157.63 0.94 157.63-3.38L157.63-3.38 157.63-7.65Q152.95 0.81 142.29 3.46L142.29 3.46Q139.54 4.37 138.01 1.48L138.01 1.48 137.75 1.13Q135.94-1.17 138.74-1.98L138.74-1.98Q147.6-3.96 151.43-10.26L151.43-10.26 143.69-10.26Q140.76-10.26 140.76-13.18L140.76-13.18 140.76-20.56Q139.77-19.84 139.05-20.84L139.05-20.84Q139.05-21.02 137.47-22.72L137.47-22.72Q135.31-24.7 137.75-26.32L137.75-26.32Q139.77-27.49 142.97-31.14L142.97-31.14Q146.16-34.83 148-38.74L148-38.74 153.09-37.75Q154.94-37.44 154.03-35.77L154.03-35.77 162.9-36.05 165.06-34.6Q167.49-33.03 166-30.51L166-30.51Q165.69-30.02 163.31-27.04L163.31-27.04 175.23-27.04 175.23-13.18Q175.23-10.26 172.31-10.26L172.31-10.26 170.69-10.26Q173.7-7.6 173.84-7.25Z" transform="translate(-1.7330434322357178, 38.7400016784668)"></path></g> <!----> <!----> <!----> <!----> <!----> <!----> <!----></g></g> <g data-gra="path-slogan" fill-rule="" class="tp-slogan iconsvg-slogansvg" fill="#333" transform="translate(5,49.060001373291016)"><rect x="0" height="1" y="3.9750003814697266" width="35.879661560058594"></rect> <rect height="1" y="3.9750003814697266" width="35.879661560058594" x="131.07965850830078"></rect> <g transform="translate(38.879661560058594,0)"><g transform="scale(1)"><path d="M5.67-7.13L5.63-7.13L3.66 0L2.44 0L0.19-8.58L1.41-8.58L3.05-1.59L3.09-1.59L5.02-8.58L6.28-8.58L8.20-1.59L8.25-1.59L9.84-8.58L11.11-8.58L8.86 0L7.64 0L5.67-7.13ZM17.86-3.19L17.86-8.58L19.03-8.58L19.03-3.05Q18.89 0.05 15.52 0.14L15.52 0.14Q12.38 0.05 12.23-2.86L12.23-2.86L12.23-8.58L13.41-8.58L13.41-3.19Q13.45-0.84 15.56-0.80L15.56-0.80Q17.86-0.84 17.86-3.19L17.86-3.19ZM21.98-5.06L26.48-5.06L26.48-8.58L27.66-8.58L27.66 0L26.48 0L26.48-3.98L21.98-3.98L21.98 0L20.81 0L20.81-8.58L21.98-8.58L21.98-5.06ZM35.11 0L34.27-2.48L30.80-2.48L29.91 0L28.73 0L31.97-8.58L33.28-8.58L36.38 0L35.11 0ZM32.53-7.31L31.17-3.52L33.84-3.52L32.58-7.31L32.53-7.31ZM38.81-8.58L43.13-1.64L43.13-8.58L44.25-8.58L44.25 0L42.94 0L38.58-6.94L38.53-6.94L38.53 0L37.41 0L37.41-8.58L38.81-8.58ZM56.30-8.58L53.06-3.47L53.06 0L51.89 0L51.89-3.47L48.66-8.58L50.02-8.58L52.45-4.45L54.94-8.58L56.30-8.58ZM64.13-4.27L64.13-4.27Q63.94-7.64 61.13-7.83L61.13-7.83Q58.27-7.69 58.13-4.27L58.13-4.27Q58.27-0.94 61.13-0.80L61.13-0.80Q63.94-0.98 64.13-4.27ZM65.30-4.27L65.30-4.27Q65.02 0 61.13 0.14L61.13 0.14Q57.19 0 56.91-4.27L56.91-4.27Q57.14-8.72 61.13-8.81L61.13-8.81Q65.02-8.67 65.30-4.27ZM72.33-3.19L72.33-8.58L73.50-8.58L73.50-3.05Q73.36 0.05 69.98 0.14L69.98 0.14Q66.84 0.05 66.70-2.86L66.70-2.86L66.70-8.58L67.88-8.58L67.88-3.19Q67.92-0.84 70.03-0.80L70.03-0.80Q72.33-0.84 72.33-3.19L72.33-3.19ZM77.48-7.59L74.58-7.59L74.58-8.58L81.52-8.58L81.52-7.59L78.61-7.59L78.61 0L77.48 0L77.48-7.59ZM88.22-3.19L88.22-8.58L89.39-8.58L89.39-3.05Q89.25 0.05 85.88 0.14L85.88 0.14Q82.73 0.05 82.59-2.86L82.59-2.86L82.59-8.58L83.77-8.58L83.77-3.19Q83.81-0.84 85.92-0.80L85.92-0.80Q88.22-0.84 88.22-3.19L88.22-3.19Z" transform="translate(-0.1875, 8.8125)"></path></g></g></g></g></g><defs v-gra="od"></defs></svg>